Coordinates
version=1
nRows=17
nColumns=24
inDegrees=yes

Units are S.I. units (second, meters, Newtons, ...)
Angles are in degrees.

endheader
time	pelvis_tilt	pelvis_list	pelvis_rotation	pelvis_tx	pelvis_ty	pelvis_tz	hip_flexion_r	hip_adduction_r	hip_rotation_r	knee_angle_r	ankle_angle_r	subtalar_angle_r	mtp_angle_r	hip_flexion_l	hip_adduction_l	hip_rotation_l	knee_angle_l	ankle_angle_l	subtalar_angle_l	mtp_angle_l	lumbar_extension	lumbar_bending	lumbar_rotation
      3.73000000	    -10.03561324	      0.07963754	      3.35728903	     -1.72218042	     -0.02370224	     -0.70405770	     32.75178246	     -2.21764299	    -16.47214698	    -11.44889158	     -4.50856313	     -3.70440761	     12.67303916	     -5.54635426	      2.90136979	    -12.64868193	    -12.75504209	     10.30318605	      7.00287187	      9.99499947	      6.51560975	      1.39461726	     -9.90693096
      3.73500000	    -10.04807412	     -0.07554717	      3.34461900	     -1.71543490	     -0.02439148	     -0.70348619	     32.76988685	     -1.95926475	    -15.76608092	    -12.08629453	     -4.87983098	     -4.56299019	     11.96326103	     -5.58767544	      2.54669260	    -12.68920318	    -13.49294570	     10.07232906	      7.24721466	      9.87931794	      6.68046054	      1.60781903	     -9.95287730
      3.74000000	    -10.04768434	     -0.19489015	      3.30847911	     -1.70875100	     -0.02507001	     -0.70275981	     32.80590623	     -1.71662605	    -15.03108322	    -12.80316554	     -5.25692273	     -5.46233854	     10.75786769	     -5.61535868	      2.21091486	    -12.77460735	    -14.28254418	      9.84011550	      7.59946721	      9.71888243	      6.81206317	      1.76964007	     -9.97637480
      3.74500000	    -10.07127336	     -0.38174370	      3.30721443	     -1.70193591	     -0.02566332	     -0.70212325	     32.82612729	     -1.44465834	    -14.44447418	    -13.44350974	     -5.81175709	     -6.40458262	     10.02449690	     -5.59112088	      1.80833191	    -12.79327911	    -15.10136102	      9.47363791	      7.76250469	      9.59505968	      7.00076611	      2.00761337	    -10.09426610
      3.75000000	    -10.10499081	     -0.58177670	      3.26694467	     -1.69512006	     -0.02622024	     -0.70135988	     32.86807144	     -1.14088865	    -13.88984661	    -14.09390813	     -6.40926029	     -7.40978943	      9.14535522	     -5.51823732	      1.37423787	    -12.88144050	    -15.99148144	      9.08966690	      8.00453096	      9.45786945	      7.19456783	      2.25327912	    -10.13088175
      3.75500000	    -10.15575968	     -0.82740353	      3.13925615	     -1.68823385	     -0.02673743	     -0.70051342	     32.93578984	     -0.75350366	    -13.30906237	    -14.76575204	     -6.96693194	     -8.37609001	      7.78164888	     -5.41183387	      0.89106624	    -13.06398569	    -16.91950365	      8.68962077	      8.25332185	      9.27762725	      7.41515746	      2.57280910	    -10.04994681
      3.76000000	    -10.19985388	     -1.04098388	      3.09833389	     -1.68142921	     -0.02708735	     -0.69971522	     32.97408334	     -0.45564865	    -12.86471235	    -15.39555214	     -7.54867757	     -9.41189536	      6.74915456	     -5.25099444	      0.42871415	    -13.13175800	    -17.91415134	      8.12487812	      8.43023057	      9.12837082	      7.61746741	      2.83232549	    -10.10189221
      3.76500000	    -10.24496729	     -1.27218944	      3.05474062	     -1.67459432	     -0.02737628	     -0.69890122	     32.99934741	     -0.14398138	    -12.46540340	    -16.01720432	     -8.00818379	    -10.47022307	      5.72615097	     -5.03425642	     -0.06579968	    -13.24395065	    -18.99622957	      7.50593311	      8.57018274	      8.99122648	      7.82777692	      3.11048023	    -10.16361774
      3.77000000	    -10.30547063	     -1.52937932	      2.89563971	     -1.66773872	     -0.02760260	     -0.69795446	     33.04517657	      0.25822836	    -11.99710471	    -16.66711516	     -8.30753076	    -11.40174312	      4.05017726	     -4.77059695	     -0.59358521	    -13.47434971	    -20.14202985	      6.84451575	      8.71313503	      8.86144931	      8.04370809	      3.44563720	    -10.03957935
      3.77500000	    -10.34516638	     -1.76039147	      2.82653136	     -1.66090367	     -0.02765988	     -0.69710887	     33.03077327	      0.58215129	    -11.64877488	    -17.28367260	     -8.45910935	    -12.27283086	      2.52165632	     -4.46042975	     -1.10374056	    -13.59067401	    -21.35801672	      5.99722742	      8.73798722	      8.81909198	      8.24331923	      3.73457926	    -10.05928153
      3.78000000	    -10.35149123	     -1.93779981	      2.80880517	     -1.65415272	     -0.02756785	     -0.69633644	     32.95009415	      0.81614182	    -11.41040175	    -17.83550730	     -8.61500286	    -13.14692034	      1.91733144	     -4.12159114	     -1.55664852	    -13.58949383	    -22.64004029	      5.00223784	      8.66253489	      8.75707377	      8.38957657	      3.95810010	    -10.14664822
      3.78500000	    -10.39868968	     -2.11804690	      2.60199823	     -1.64733599	     -0.02748134	     -0.69525705	     32.91712273	      1.18714001	    -10.98537743	    -18.42485995	     -8.51191029	    -13.83413529	      0.21558750	     -3.72284563	     -2.04234578	    -13.89468648	    -23.96646389	      3.86206939	      8.65905406	      9.03064348	      8.57474528	      4.21325525	     -9.94917012
      3.79000000	    -10.36109671	     -2.27944182	      2.59173683	     -1.64061496	     -0.02716910	     -0.69451960	     32.71762028	      1.41630072	    -10.80405882	    -18.88103445	     -8.42215225	    -14.48232242	     -0.25583788	     -3.32291340	     -2.48263809	    -13.82096893	    -25.36519722	      2.56090529	      8.38515632	      9.05064206	      8.66821721	      4.42701029	    -10.03546832
      3.79500000	    -10.41628431	     -2.43242108	      2.37987966	     -1.63387780	     -0.02696045	     -0.69342642	     32.63055758	      1.77622835	    -10.42068904	    -19.37392114	     -8.12125047	    -14.93331330	     -1.67809396	     -2.80846452	     -2.95518986	    -14.08382051	    -26.79067733	      1.01659096	      8.18198936	      9.84879685	      8.84647623	      4.65474104	     -9.83776577
      3.80000000	    -10.33126603	     -2.57913963	      2.33184951	     -1.62726642	     -0.02649121	     -0.69266724	     32.31340990	      2.03287529	    -10.23176637	    -19.70959762	     -7.91016672	    -15.41069245	     -1.91337701	     -2.36089381	     -3.38233087	    -13.99264793	    -28.29146798	     -0.57541868	      7.76185982	      9.86988343	      8.86469216	      4.86523924	     -9.85082186
      3.80500000	    -10.40472705	     -2.72182300	      2.13684726	     -1.62067794	     -0.02622718	     -0.69162884	     32.17958329	      2.38200306	     -9.89172204	    -20.07452182	     -7.55063884	    -15.74139830	     -2.84439197	     -1.71953044	     -3.84030515	    -14.12997110	    -29.80180083	     -2.48378029	      7.33086813	     11.01165404	      9.04065669	      5.08093319	     -9.67039997
      3.81000000	    -10.34512628	     -2.88924961	      2.02116008	     -1.61420022	     -0.02576359	     -0.69076970	     31.84219254	      2.71755905	     -9.65110719	    -20.32547253	     -7.21910851	    -16.07188633	     -3.38333031	     -1.16859782	     -4.30118009	    -14.07622229	    -31.34566761	     -4.43975364	      6.78738503	     11.71741407	      9.05959454	      5.32020308	     -9.58019376
